<svg viewBox="0 0 2239 2081" xmlns="http://www.w3.org/2000/svg">
  <!-- Yellow pin background -->
  <path d="M1119.5 0C628.2 0 225 403.2 225 894.5C225 1385.8 1119.5 2081 1119.5 2081C1119.5 2081 2014 1385.8 2014 894.5C2014 403.2 1610.8 0 1119.5 0Z" fill="#FBBF24"/>
  
  <!-- White circle background -->
  <circle cx="1119.5" cy="894.5" r="700" fill="white"/>
  
  <!-- Bus icon -->
  <g transform="translate(1119.5, 894.5)">
    <!-- Bus body -->
    <rect x="-280" y="-180" width="560" height="360" rx="40" fill="none" stroke="#1E3A8A" stroke-width="60"/>
    
    <!-- Bus windows -->
    <rect x="-240" y="-140" width="140" height="120" rx="10" fill="none" stroke="#1E3A8A" stroke-width="40"/>
    <rect x="100" y="-140" width="140" height="120" rx="10" fill="none" stroke="#1E3A8A" stroke-width="40"/>
    
    <!-- Bus headlights -->
    <circle cx="-200" cy="160" r="40" fill="#1E3A8A"/>
    <circle cx="200" cy="160" r="40" fill="#1E3A8A"/>
    
    <!-- Bus grille -->
    <line x1="-120" y1="140" x2="120" y2="140" stroke="#1E3A8A" stroke-width="30"/>
    <line x1="-120" y1="190" x2="120" y2="190" stroke="#1E3A8A" stroke-width="30"/>
  </g>
</svg>
